<svg width="924" height="651" viewBox="0 0 924 651" fill="none" xmlns="http://www.w3.org/2000/svg">
<g opacity="0.5" clip-path="url(#clip0_976_1261)">
<rect width="169.354" height="169.354" rx="18.6874" transform="matrix(-1 0 0 1 923.125 -111.095)" stroke="#F0F0F0" stroke-width="1.75194"/>
<rect width="169.354" height="169.354" rx="18.6874" transform="matrix(-1 0 0 1 753.77 -111.095)" stroke="#F0F0F0" stroke-width="1.75194"/>
<rect width="169.354" height="169.354" rx="18.6874" transform="matrix(-1 0 0 1 584.418 -111.095)" stroke="#F0F0F0" stroke-width="1.75194"/>
<rect width="169.354" height="169.354" rx="18.6874" transform="matrix(-1 0 0 1 415.062 -111.095)" stroke="#F0F0F0" stroke-width="1.75194"/>
<rect width="169.354" height="169.354" rx="18.6874" transform="matrix(-1 0 0 1 245.707 -111.095)" stroke="#F0F0F0" stroke-width="1.75194"/>
<rect width="169.354" height="169.354" rx="18.6874" transform="matrix(-1 0 0 1 76.3555 -111.095)" stroke="#F0F0F0" stroke-width="1.75194"/>
<rect width="169.354" height="169.354" rx="18.6874" transform="matrix(-1 0 0 1 923.125 58.2566)" stroke="#F0F0F0" stroke-width="1.75194"/>
<rect width="169.354" height="169.354" rx="18.6874" transform="matrix(-1 0 0 1 753.77 58.2566)" stroke="#F0F0F0" stroke-width="1.75194"/>
<rect width="169.354" height="169.354" rx="18.6874" transform="matrix(-1 0 0 1 584.418 58.2566)" stroke="#F0F0F0" stroke-width="1.75194"/>
<rect width="169.354" height="169.354" rx="18.6874" transform="matrix(-1 0 0 1 415.062 58.2566)" stroke="#F0F0F0" stroke-width="1.75194"/>
<rect width="169.354" height="169.354" rx="18.6874" transform="matrix(-1 0 0 1 245.707 58.2566)" stroke="#F0F0F0" stroke-width="1.75194"/>
<rect width="169.354" height="169.354" rx="18.6874" transform="matrix(-1 0 0 1 76.3555 58.2566)" stroke="#F0F0F0" stroke-width="1.75194"/>
<rect width="169.354" height="169.354" rx="18.6874" transform="matrix(-1 0 0 1 923.125 227.612)" stroke="#F0F0F0" stroke-width="1.75194"/>
<rect width="169.354" height="169.354" rx="18.6874" transform="matrix(-1 0 0 1 753.77 227.612)" stroke="#F0F0F0" stroke-width="1.75194"/>
<rect width="169.354" height="169.354" rx="18.6874" transform="matrix(-1 0 0 1 584.418 227.612)" stroke="#F0F0F0" stroke-width="1.75194"/>
<rect width="169.354" height="169.354" rx="18.6874" transform="matrix(-1 0 0 1 415.062 227.612)" stroke="#F0F0F0" stroke-width="1.75194"/>
<rect width="169.354" height="169.354" rx="18.6874" transform="matrix(-1 0 0 1 245.707 227.612)" stroke="#F0F0F0" stroke-width="1.75194"/>
<rect width="169.354" height="169.354" rx="18.6874" transform="matrix(-1 0 0 1 76.3555 227.612)" stroke="#F0F0F0" stroke-width="1.75194"/>
<rect width="169.354" height="169.354" rx="18.6874" transform="matrix(-1 0 0 1 923.125 396.968)" stroke="#F0F0F0" stroke-width="1.75194"/>
<rect width="169.354" height="169.354" rx="18.6874" transform="matrix(-1 0 0 1 753.77 396.968)" stroke="#F0F0F0" stroke-width="1.75194"/>
<rect width="169.354" height="169.354" rx="18.6874" transform="matrix(-1 0 0 1 584.418 396.968)" stroke="#F0F0F0" stroke-width="1.75194"/>
<rect width="169.354" height="169.354" rx="18.6874" transform="matrix(-1 0 0 1 415.062 396.968)" stroke="#F0F0F0" stroke-width="1.75194"/>
<rect width="169.354" height="169.354" rx="18.6874" transform="matrix(-1 0 0 1 245.707 396.968)" stroke="#F0F0F0" stroke-width="1.75194"/>
<rect width="169.354" height="169.354" rx="18.6874" transform="matrix(-1 0 0 1 76.3555 396.968)" stroke="#F0F0F0" stroke-width="1.75194"/>
<rect width="169.354" height="169.354" rx="18.6874" transform="matrix(-1 0 0 1 923.125 566.319)" stroke="#F0F0F0" stroke-width="1.75194"/>
<rect width="169.354" height="169.354" rx="18.6874" transform="matrix(-1 0 0 1 753.77 566.319)" stroke="#F0F0F0" stroke-width="1.75194"/>
<rect width="169.354" height="169.354" rx="18.6874" transform="matrix(-1 0 0 1 584.418 566.319)" stroke="#F0F0F0" stroke-width="1.75194"/>
<rect width="169.354" height="169.354" rx="18.6874" transform="matrix(-1 0 0 1 415.062 566.319)" stroke="#F0F0F0" stroke-width="1.75194"/>
<rect width="169.354" height="169.354" rx="18.6874" transform="matrix(-1 0 0 1 245.707 566.319)" stroke="#F0F0F0" stroke-width="1.75194"/>
<rect width="169.354" height="169.354" rx="18.6874" transform="matrix(-1 0 0 1 76.3555 566.319)" stroke="#F0F0F0" stroke-width="1.75194"/>
<path d="M245.708 -97.0796V39.5717C245.708 49.8924 237.342 58.259 227.021 58.259H95.0415C84.7208 58.259 76.3542 66.6257 76.3542 76.9464V208.926C76.3542 219.247 67.9875 227.613 57.6668 227.613H-74.3127C-84.6334 227.613 -93 235.98 -93 246.301V378.28C-93 388.601 -101.367 396.967 -111.687 396.967H-243.667C-253.988 396.967 -262.354 405.334 -262.354 415.655V547.634C-262.354 557.955 -270.721 566.322 -281.042 566.322H-417.693M415.062 -97.0796V39.5717C415.062 49.8924 406.696 58.259 396.375 58.259H264.396C254.075 58.259 245.708 66.6257 245.708 76.9464V208.926C245.708 219.247 237.342 227.613 227.021 227.613H95.0415C84.7208 227.613 76.3542 235.98 76.3542 246.301V378.28C76.3542 388.601 84.7208 396.967 95.0415 396.967H227.021C237.342 396.967 245.708 388.601 245.708 378.28V243.965L245.872 242.861C247.126 234.397 254.31 228.077 262.865 227.912L278.411 227.613H396.375C406.696 227.613 415.062 235.98 415.062 246.301V378.28C415.062 388.601 406.696 396.967 396.375 396.967H263.228L258.792 397.263C251.429 397.754 245.708 403.869 245.708 411.248V425.582M245.708 410.983V547.634C245.708 557.955 237.342 566.322 227.021 566.322H95.0415C84.7208 566.322 76.3542 574.688 76.3542 585.009V716.988C76.3542 727.309 67.9875 735.676 57.6668 735.676H-74.3127C-84.6334 735.676 -93 744.042 -93 754.363V886.342C-93 896.663 -101.367 905.03 -111.687 905.03H-243.667C-253.988 905.03 -262.354 913.396 -262.354 923.717V1055.7C-262.354 1066.02 -270.721 1074.38 -281.042 1074.38H-417.693" stroke="url(#paint0_linear_976_1261)" stroke-opacity="0.8" stroke-width="1.75194"/>
<rect width="949.551" height="508.062" transform="matrix(0 -1 -1 0 923.125 949.551)" fill="url(#paint1_linear_976_1261)" fill-opacity="0.4"/>
<ellipse cx="631.866" cy="538.429" rx="631.866" ry="538.429" transform="matrix(-1 0 0 1 891.594 -652.89)" fill="url(#paint2_radial_976_1261)" fill-opacity="0.4"/>
</g>
<defs>
<linearGradient id="paint0_linear_976_1261" x1="415.063" y1="-97.0796" x2="-399.005" y2="910.286" gradientUnits="userSpaceOnUse">
<stop offset="0.0819437" stop-color="#F7F7F7"/>
<stop offset="0.572917" stop-color="#EDB54B"/>
</linearGradient>
<linearGradient id="paint1_linear_976_1261" x1="474.776" y1="0" x2="474.776" y2="508.062" gradientUnits="userSpaceOnUse">
<stop stop-color="white"/>
<stop offset="1" stop-color="white" stop-opacity="0"/>
</linearGradient>
<radialGradient id="paint2_radial_976_1261" cx="0" cy="0" r="1" gradientUnits="userSpaceOnUse" gradientTransform="translate(631.866 538.429) rotate(90) scale(538.429 631.866)">
<stop stop-color="white"/>
<stop offset="1" stop-color="white" stop-opacity="0"/>
</radialGradient>
<clipPath id="clip0_976_1261">
<rect width="1016.12" height="650.32" fill="white" transform="matrix(-1 0 0 1 923.125 0)"/>
</clipPath>
</defs>
</svg>
