<svg width="40" height="38" viewBox="0 0 40 38" fill="none" xmlns="http://www.w3.org/2000/svg">
<path id="path40" d="M4.42784 8.86001C4.3747 8.78639 4.29907 8.72715 4.19275 8.68434C4.29907 8.72715 4.37163 8.79152 4.42784 8.86001ZM8.24059 3.7135C8.41434 3.85243 8.59423 3.9811 8.82226 3.97147C8.59423 3.9811 8.41741 3.8473 8.24059 3.7135C8.03203 3.64426 7.81529 3.57709 7.67734 3.42479C7.81529 3.57709 8.02692 3.6412 8.24059 3.7135ZM11.4118 3.0228C11.3515 2.93793 11.3056 2.84075 11.2627 2.73845C11.3005 2.83769 11.3464 2.93487 11.4118 3.0228ZM11.9272 3.0321C11.9526 3.22146 11.9996 3.30532 12.065 3.32363C11.9996 3.30532 11.9495 3.22658 11.9272 3.0321ZM23.0468 10.927C23.1643 11.1715 23.3687 11.294 23.6151 11.358C23.8195 11.5849 24.0065 11.8293 24.3306 11.8911C24.5493 12.0361 24.7711 12.176 24.9868 12.3261C24.7711 12.176 24.5462 12.0412 24.3306 11.8911C24.0065 11.8293 23.8226 11.5798 23.6151 11.358C23.3687 11.294 23.1592 11.1684 23.0468 10.927C22.8433 10.9304 22.7769 10.8558 22.7719 10.7483C22.7769 10.8558 22.8382 10.9274 23.0468 10.927ZM26.9819 19.5107C27.1096 19.622 27.2527 19.7078 27.402 19.7833C27.2558 19.7027 27.1076 19.6139 26.9819 19.5107C26.9798 19.5373 26.9675 19.5578 26.9604 19.5814C26.9675 19.5578 26.9747 19.5342 26.9819 19.5107ZM30.1098 21.2107C30.2857 21.2882 30.4635 21.3738 30.5964 21.5231C30.4553 21.5499 30.3141 21.5768 30.1781 21.6068C30.2067 21.6518 30.2384 21.6916 30.2721 21.7397C30.3815 21.8818 30.4826 22.026 30.6196 22.0872C30.4826 22.026 30.3764 21.8787 30.2721 21.7397C30.2435 21.6947 30.2119 21.6548 30.1832 21.6098C30.3244 21.5829 30.4655 21.5561 30.6015 21.5261C30.4635 21.3738 30.2908 21.2912 30.1098 21.2107ZM32.8384 22.3022C32.8435 22.2357 32.8078 22.1446 32.7976 22.0689C32.8027 22.1415 32.8435 22.2357 32.8384 22.3022ZM2.64165 34.5396C2.64266 34.5611 2.64878 34.5856 2.6549 34.6102C2.64571 34.5908 2.63959 34.5662 2.64165 34.5396ZM1.53774 2.25346C1.13351 2.84698 1.38666 3.65329 0.96405 4.20795C0.686742 4.57805 0.756097 4.89121 0.819297 5.24943C0.896511 6.1523 1.58033 6.61075 2.17002 7.14513C2.17409 7.19632 2.19554 7.23006 2.24461 7.2525C2.47454 7.49472 2.70959 7.74001 2.9426 7.97711C3.37296 8.18621 3.43603 8.7881 3.93903 8.92233C3.99195 9.37886 4.3375 9.50928 4.7035 9.61713C4.81569 10.137 5.40158 10.1677 5.65597 10.543C5.97178 10.8158 6.15254 11.2444 6.60954 11.3511C6.9417 11.6546 7.28203 11.956 7.61418 12.2594C7.7898 12.7198 8.20486 12.8849 8.60763 13.0705C8.67094 13.2199 8.75575 13.3334 8.88554 13.4529C9.40678 13.9045 10.0979 14.1654 10.4175 14.8374C10.5565 15.0112 10.7069 14.8297 10.8521 14.854C10.8796 15.1212 11.0247 15.2847 11.2823 15.3416C11.4591 15.6146 11.6952 15.8118 12.0233 15.8901C12.2338 16.2808 12.5588 16.5382 12.9687 16.7002C13.6894 17.0972 14.1737 17.8191 14.9424 18.1474C15.4392 18.5007 15.9308 18.851 16.4276 19.2043C16.5695 19.5122 16.735 19.7925 17.1297 19.8061C17.2074 19.8735 17.283 19.9327 17.3607 20.0002C17.432 20.426 17.112 20.3805 16.8553 20.4147C16.6785 20.3157 16.5068 20.1502 16.3238 20.1311C15.2502 20.045 14.2627 19.6065 13.2137 19.4098C12.2597 19.2283 11.3551 18.7907 10.3426 19.0199C10.2117 19.0529 10.0103 19.0645 9.93058 18.9889C9.29488 18.4269 8.53909 18.6914 7.84274 18.706C7.40101 18.7129 7.19544 18.7778 7.30619 18.2104C7.36565 17.9257 7.32095 17.3975 6.74811 17.8203C6.28803 17.7188 5.90656 17.8454 5.58121 18.1798C5.06619 17.5787 4.97783 18.3406 4.69044 18.4609C4.48917 18.1592 4.33779 18.2496 4.19142 18.5171C3.87002 19.1115 3.49955 19.6835 3.0463 20.1849C2.90403 20.434 2.96115 20.698 2.9702 20.9611C3.03447 21.2364 3.07421 21.4831 2.92578 21.7772C2.61768 22.3726 2.67361 22.9284 3.11809 23.5081C3.52374 24.0367 3.92426 24.597 4.14374 25.2508C4.17339 25.2477 4.20612 25.2395 4.23066 25.2333C4.20305 25.2446 4.17339 25.2477 4.14374 25.2508C4.42577 25.58 4.71599 25.9071 4.99803 26.2362C5.11554 26.3763 5.33012 26.6441 5.3383 26.6421C5.8242 26.2716 5.91589 26.8837 6.20214 26.9855C7.60646 28.1194 9.18476 28.9745 10.7477 29.8552C10.945 29.9664 11.1729 30.2701 11.3324 30.1777C11.7917 29.9096 11.7894 30.2495 11.9284 30.4929C11.0233 30.7167 10.141 30.5781 9.27691 30.6175C8.01815 30.6782 6.80028 30.7633 5.57818 31.1106C4.82343 31.327 4.0789 31.5843 3.33539 31.8283C2.97028 31.9508 2.58358 32.2832 2.78472 32.8285C2.75808 32.931 2.73654 33.0365 2.7099 33.1389C2.52377 33.1945 2.42249 33.294 2.36306 33.5091C2.26573 33.8686 2.43221 34.2052 2.38907 34.5554C2.17829 34.8261 2.36848 34.8216 2.56174 34.8121C2.68161 36.235 3.20885 36.92 4.28347 37.0275C4.47469 37.0098 4.82736 37.1863 4.81933 36.9099C4.80326 36.3918 5.2288 36.0757 5.27814 35.6108C6.1056 35.1803 6.94627 34.8901 7.87964 35.2334C8.23937 35.5952 8.51063 35.0613 8.84393 35.1426C9.96668 35.1119 11.0884 35.0597 12.2122 35.0505C13.2183 35.0404 14.2337 35.015 15.2286 35.1166C17.388 35.3379 19.5433 35.6125 21.6946 35.9055C22.8826 36.0671 24.0861 36.1335 25.2363 36.5092C25.7279 36.8595 25.9208 37.5809 26.6763 37.6646C26.4324 36.8081 27.1175 36.9051 27.5603 36.7456C27.9375 36.8811 28.3834 36.8557 28.6797 37.2074C28.741 37.2789 28.9025 37.3687 28.9946 37.2498C29.4858 36.6387 30.404 36.6944 30.8512 35.9595C31.2432 35.3168 31.4317 34.608 31.5364 33.9116C31.5939 33.5143 30.8945 33.534 30.6605 33.2057C30.6217 33.1546 30.5491 33.1251 30.4878 33.0883C30.4582 32.9522 30.4235 32.813 30.3939 32.6769C30.4401 32.3912 30.7378 32.0333 30.5171 31.8453C30.2789 31.64 29.8933 31.9591 29.6039 31.9668C29.0231 31.974 28.8642 32.6797 28.3049 32.6162C27.9543 32.4827 27.9423 31.9811 27.5333 31.9102C27.3381 31.7027 27.1774 32.1565 27.0139 31.9541C26.4222 31.2027 25.4652 31.2003 24.6892 30.8608C23.0321 30.1256 21.2655 29.6313 19.548 29.0201C17.7242 28.3662 15.926 27.6579 14.181 26.8144C14.0748 26.5627 13.8048 26.6656 13.6279 26.5666C13.0228 26.197 12.3225 25.9864 11.7675 25.5216C11.6235 25.2055 11.3934 25.2765 11.15 25.3814C10.9641 25.0193 10.6523 24.7977 10.3191 24.5772C9.81009 24.2443 9.14347 24.1165 8.86979 23.472C8.91585 23.3952 8.95679 23.3152 9.00285 23.2384C9.20122 23.2319 9.37816 23.1568 9.503 22.9948C9.65535 22.9956 9.63987 23.2649 9.8301 23.1908C9.94666 23.2049 10.0632 23.219 10.1767 23.2383C10.6521 23.3142 11.1194 23.427 11.5979 23.463C12.241 23.514 12.8462 23.7443 13.4812 23.8322C14.2378 23.9373 15.0311 24.2246 15.8071 24.4249C16.7875 24.678 17.8089 24.886 18.7177 25.2704C20.0385 25.8249 21.4321 26.1306 22.7487 26.7035C23.9724 27.2347 25.2462 27.6706 26.4853 28.1762C27.4912 28.5839 28.447 29.1217 29.458 29.4976C30.604 29.9266 31.7337 30.3596 32.7497 31.0519C32.8713 31.2432 33.0481 31.2725 33.2486 31.2046C34.1471 31.6872 35.0825 32.1083 35.9268 32.6699C36.7026 33.1835 37.2067 33.2696 37.8103 32.6562C38.1326 32.327 38.463 32.0305 38.865 31.8117C39.0828 31.6915 39.0972 31.54 39.0606 31.2882C38.9465 30.4816 38.2196 30.1994 37.7024 29.9034C36.3378 29.1206 35.455 27.7769 34.0996 27.0136C34.0383 26.8724 33.9167 26.8204 33.7838 26.7756C33.3043 26.5093 32.8331 26.2408 32.3537 25.9745C32.1626 25.7138 31.9245 25.578 31.589 25.6974C31.5063 25.5573 31.4583 25.3475 31.3377 25.2822C30.0487 24.5587 28.8661 23.6691 27.6252 22.8768C27.4403 22.5711 27.2339 22.3012 26.8136 22.4463C26.5358 21.7854 25.8601 21.4641 25.3613 21.1026C24.1685 20.2417 22.9481 19.4269 21.8013 18.4891C20.9939 17.8313 20.122 17.2462 19.2798 16.6232C17.9623 15.6458 16.696 14.5946 15.359 13.6265C14.341 12.8912 13.2749 12.1549 12.4186 11.1961C12.3615 10.8973 12.0894 11.1312 11.9575 11.0035C11.7186 10.4633 11.1143 10.359 10.729 9.98191C10.0525 9.32585 9.2511 8.79697 8.68812 8.02092C8.66573 7.82643 8.72001 7.67788 8.92046 7.60994C8.9583 7.60475 8.99818 7.60775 9.02987 7.61282C9.07993 7.69156 9.11565 7.81742 9.18108 7.83573C10.3456 8.1643 11.38 8.79105 12.4851 9.2303C12.9155 9.40459 13.2333 9.8248 13.7404 9.80135C13.7351 10.216 13.9967 10.4285 14.33 10.5794C14.4046 10.652 14.4792 10.7245 14.5538 10.7971C14.6214 10.6843 14.6889 10.5716 14.7585 10.467C14.691 10.5798 14.6234 10.6925 14.5538 10.7971C14.7664 11.0567 15.161 11.14 15.2027 11.5689C15.2149 11.7224 15.4122 11.8337 15.5983 11.778C15.7844 11.7224 15.6291 11.5179 15.7284 11.4102C15.7529 11.4389 15.7805 11.4624 15.8081 11.4859C15.8048 11.8391 15.8629 12.1594 16.2688 12.2703C16.3495 12.4022 16.4251 12.5311 16.5058 12.663C16.9322 12.7513 17.0924 13.2373 17.5218 13.3205C17.676 13.7471 18.1638 13.6981 18.4356 13.9516C18.5123 14.0323 18.5838 14.11 18.6604 14.1907C18.835 14.734 19.3851 14.8129 19.7694 15.0989C19.8593 15.2154 19.9369 15.3525 20.119 15.2805C20.083 15.5723 20.2395 15.5894 20.4512 15.5143C20.5645 15.8469 20.909 15.9558 21.1011 16.2032C21.1675 16.3474 21.2554 16.4558 21.4354 16.4452C21.7818 16.7712 22.3349 16.8449 22.5596 17.3278C22.7425 17.6602 23.216 17.5539 23.407 17.8842C23.4663 17.9128 23.5276 17.9495 23.5869 17.9781C23.8128 18.0647 24.0337 18.1482 24.2596 18.2348C24.4252 18.2366 24.3821 18.5172 24.5856 18.4789C24.698 18.6159 24.746 18.8257 24.9842 18.8222C25.2326 18.9989 25.4421 19.2637 25.7969 19.2047C26.0207 19.5268 26.3795 19.6582 26.681 19.8737C27.3751 20.2338 28.0119 20.7128 28.7756 20.9336C28.8932 21.004 29.0138 21.0693 29.1313 21.1398C29.3552 21.2878 29.5821 21.4307 29.806 21.5788C29.9447 22.2051 30.4824 22.3741 30.968 22.5954C30.9772 22.6496 30.9945 22.7018 31.0037 22.756C31.0343 22.9833 30.9983 23.3099 31.2457 23.3607C31.4512 23.4002 31.6906 23.2094 31.6345 22.8972C31.8043 22.8109 32.0436 22.8289 32.1408 22.6086L32.151 22.6147C32.3249 22.5796 32.4957 22.5496 32.6695 22.5144C32.6694 22.7581 32.3768 23.0842 32.7785 23.2135C33.0863 23.3143 33.0108 22.8722 33.2205 22.7889C33.7532 22.7807 33.822 22.3066 34.0369 21.9826C33.8232 22.0844 33.6063 22.1913 33.3926 22.293C33.6063 22.1913 33.8201 22.0895 34.0369 21.9826C34.0717 21.8782 34.1015 21.7706 34.1363 21.6661C34.559 20.9722 34.559 20.9722 34.1224 20.8778C34.1419 20.8337 34.1664 20.7927 34.1859 20.7487C34.7893 20.4834 34.535 19.9341 34.5986 19.4917C34.2582 19.3295 34.0386 18.9542 33.605 18.9591C33.6071 19.0021 33.6142 19.0481 33.6326 19.087C33.7512 19.1441 33.8012 19.2229 33.8155 19.315C33.7982 19.228 33.7563 19.1472 33.6377 19.0901C33.6224 19.0461 33.6122 19.0051 33.6102 18.9621C33.5335 18.8466 33.4569 18.731 33.3803 18.6155C33.3312 18.6279 33.2903 18.6382 33.2412 18.6505C33.1972 18.7704 33.1664 18.8913 33.1592 19.0193C33.1633 18.8964 33.1972 18.7704 33.2412 18.6505C33.2903 18.6382 33.3312 18.6279 33.3803 18.6155C33.3255 17.9071 32.8829 17.5096 32.2808 17.2394C31.9127 17.193 31.9305 16.549 31.4426 16.7024C31.4089 16.6196 31.3773 16.5449 31.3436 16.462C31.2006 16.1674 30.856 16.1977 30.6362 16.0312C30.5596 15.9157 30.483 15.8001 30.4043 15.6764C30.3032 15.4626 30.1263 15.4332 29.9197 15.4766C29.8482 15.3989 29.7716 15.3182 29.7 15.2405C29.3341 14.9238 28.9683 14.6071 28.6024 14.2904C28.3264 14.1598 28.2274 13.7802 27.8736 13.7562C27.6324 13.6256 27.3932 13.5032 27.1519 13.3726C27.0487 13.2898 26.9536 13.205 26.8504 13.1223C26.4518 12.7442 26.1556 12.2185 25.5432 12.1162C25.5544 12.1786 25.5605 12.238 25.5748 12.2953C25.5625 12.3158 25.5482 12.3281 25.5359 12.3486C25.5482 12.3281 25.5574 12.3128 25.5748 12.2953C25.5635 12.2329 25.5574 12.1735 25.5432 12.1162C25.0679 11.727 24.6223 11.2999 23.9782 11.1925C23.9435 11.0185 23.8751 10.9009 23.6675 10.9576C23.5694 10.8431 23.6165 10.6137 23.3814 10.6121C23.2015 10.4486 22.995 10.3875 22.7556 10.474C22.6197 10.3647 22.4787 10.2523 22.3427 10.143C21.8879 9.87047 21.4361 9.59282 20.9761 9.31722L20.9659 9.3111C20.9107 9.15967 20.7706 9.17324 20.65 9.14274C20.603 9.1285 20.5559 9.11425 20.5089 9.1C20.2954 8.81883 19.9907 8.74772 19.6635 8.7258C19.2751 8.31902 18.7098 8.19617 18.2815 7.85602C18.2877 7.81096 18.2683 7.7854 18.2202 7.78446C17.9974 7.55348 17.5822 7.66687 17.4034 7.35083C17.0713 7.08217 16.7043 6.918 16.2718 6.90957C16.2084 6.82983 16.1471 6.75828 16.0807 6.68366C15.8405 6.43531 15.5195 6.40313 15.2087 6.34227L15.2035 6.3392C14.945 6.01717 14.6118 5.86626 14.2007 5.85677C13.6447 5.47487 13.1479 5.08672 12.7536 4.48134C12.445 4.01095 12.7387 3.5671 12.4905 3.18157C12.4793 3.08433 12.4599 2.98915 12.4487 2.89191C12.7895 2.46231 12.5873 1.89548 11.9107 1.37866C11.7625 1.25505 11.7051 1.44354 11.6018 1.46522C11.1979 1.46698 11.3388 1.89263 11.1363 2.05681C11.1035 2.06506 11.0688 2.06513 11.034 2.06519C10.9993 1.92601 10.9616 1.79196 10.9218 1.64972C10.9168 1.4378 11.2799 1.16788 10.8976 1.02934C10.505 0.884668 10.6785 1.37169 10.4955 1.49181C10.4729 1.50619 10.4995 1.5778 10.5015 1.6208C10.5351 1.84291 10.5739 2.06808 10.6075 2.29019C10.4643 2.37849 10.5246 2.49817 10.5531 2.61279C10.4856 2.69072 10.4232 2.77171 10.3587 2.84452C9.8566 2.94065 9.89628 3.29175 9.96663 3.66122C9.86426 3.87845 9.69449 3.92995 9.54531 3.75003C9.2786 3.43006 8.89717 3.48707 8.56797 3.38733C8.5343 3.26965 8.44844 3.20429 8.32677 3.1871C8.04773 2.99206 7.74605 3.05506 7.45051 3.10782C7.03781 2.39394 6.29028 2.51714 5.64617 2.37498C5.59301 2.33617 5.53987 2.29736 5.48672 2.25855C5.3866 2.10107 5.492 1.94833 5.50129 1.79371C5.5147 1.58586 5.59975 1.24682 5.36255 1.2022C5.12535 1.15758 4.73681 1.13372 4.66397 1.55669C4.49821 1.7638 4.39712 1.5152 4.25601 1.50726C4.06079 1.3694 3.92373 1.44746 3.82137 1.62989C3.51664 1.66321 3.29682 1.63596 3.25921 1.22343C3.24295 1.05351 3.13176 0.555113 2.72563 0.896785C2.33072 1.30089 1.62098 1.48851 1.53774 2.25346Z" fill="#F4B33E"/>
</svg>
