<svg width="179" height="18" viewBox="0 0 179 18" fill="none" xmlns="http://www.w3.org/2000/svg">
<path id="path632" d="M175.822 7.43573C175.674 7.20203 175.527 6.92938 175.398 6.69569C175.545 6.96833 175.674 7.20203 175.822 7.43573ZM171.86 6.57885C172.136 6.15041 172.431 5.48828 172.744 5.29353C172.449 5.48828 172.136 6.15041 171.86 6.57885ZM169.943 6.57885C169.943 6.03356 169.962 5.44933 169.962 4.90404C169.943 5.44933 169.943 5.99461 169.943 6.57885ZM154.852 4.24191C155.275 4.00821 155.718 4.51454 156.141 4.86508C155.718 4.51454 155.275 3.96926 154.852 4.24191ZM149.526 5.02089C149.71 4.74824 149.913 4.4756 150.116 4.20296C149.932 4.4756 149.729 4.74824 149.526 5.02089ZM147.499 5.76093C146.854 4.31981 146.191 6.42306 145.546 5.76093C144.625 5.76093 143.703 5.76092 142.782 5.79987C143.703 5.79987 144.625 5.79987 145.546 5.76093C146.191 6.38411 146.836 4.31981 147.499 5.76093ZM142.432 5.76093C142.303 5.48828 142.174 5.25458 142.045 5.13773C142.174 5.29352 142.303 5.48828 142.432 5.76093ZM133.145 4.94298C133.052 4.86509 132.96 4.74823 132.887 4.67034C132.979 4.74823 133.052 4.86509 133.145 4.94298ZM131.21 10.6295C129.994 9.69477 128.796 9.6558 127.58 10.1232C128.796 9.61685 129.994 9.65582 131.21 10.6295C131.707 10.9022 132.186 11.2138 132.684 11.4864C132.205 11.1748 131.707 10.9022 131.21 10.6295ZM128.906 4.4756C129.035 4.39771 129.183 4.3198 129.312 4.24191C129.183 4.3198 129.054 4.39771 128.906 4.4756C128.759 5.76092 128.501 6.3841 128.114 6.3841C128.501 6.3841 128.777 5.76092 128.906 4.4756ZM120.356 6.57885C120.375 6.26725 120.375 5.99462 120.393 5.68302C120.375 5.95567 120.375 6.26725 120.356 6.57885ZM115.731 6.69569C115.049 7.74731 114.294 7.39676 113.557 7.20202C114.312 7.39676 115.049 7.74731 115.731 6.69569C116.56 6.92938 117.408 7.20203 118.237 7.24098C117.408 7.20203 116.579 6.92938 115.731 6.69569ZM112.211 7.35782C111.695 7.59152 111.235 7.47468 110.922 6.73465C111.235 7.47468 111.695 7.55257 112.211 7.35782C112.211 6.85149 112.211 6.3062 112.23 5.79987C112.211 6.3062 112.211 6.81254 112.211 7.35782ZM107.973 6.77359C107.218 7.35782 106.481 8.48735 105.688 8.21471C106.481 8.5263 107.218 7.39677 107.973 6.77359C108.305 6.69569 108.637 6.65674 108.987 6.57885C108.637 6.65674 108.305 6.73464 107.973 6.77359ZM104.398 6.69569C104.546 6.92938 104.712 7.16307 104.859 7.39676C104.712 7.16307 104.564 6.92938 104.398 6.69569ZM101.984 11.2917C102.077 11.4085 102.15 11.5643 102.187 11.837C102.132 11.5643 102.077 11.4085 101.984 11.2917ZM99.8469 5.02089C99.5889 5.60512 99.3493 5.91672 99.0914 5.95567C99.3309 5.91672 99.5889 5.64407 99.8469 5.02089C100.308 5.02089 100.768 5.17668 101.155 4.82614C100.768 5.17668 100.289 5.02089 99.8469 5.02089ZM89.9884 5.60512C90.0437 5.72197 90.099 5.79986 90.1911 5.91671C90.099 5.79986 90.0437 5.68302 89.9884 5.60512ZM85.4185 5.13773C85.529 4.86509 85.6396 4.5535 85.7686 4.31981C85.6396 4.5535 85.5475 4.86509 85.4185 5.13773ZM83.5389 7.35782C83.3178 6.92939 83.1151 6.46199 82.8756 6.11145C83.0967 6.46199 83.2994 6.92939 83.5389 7.35782C83.6679 6.89044 83.7785 6.42306 83.8522 5.95567C83.7785 6.46201 83.6495 6.89044 83.5389 7.35782ZM80.867 13.9402C80.9039 13.9013 80.9591 13.8234 80.996 13.7844C80.9591 13.8623 80.9039 13.9013 80.867 13.9402ZM80.0746 12.3043C80.2036 12.1096 80.3695 11.798 80.48 11.6033C80.3511 11.798 80.1852 12.1096 80.0746 12.3043ZM76.5919 8.29261C77.3659 8.17576 78.1398 8.05891 78.8769 7.63047C78.1214 8.01996 77.3659 8.17576 76.5919 8.29261ZM74.6571 8.33155C74.7861 8.2926 74.9151 8.29259 75.0441 8.25365C74.9151 8.25365 74.7861 8.2926 74.6571 8.33155ZM68.871 9.11053C69.7555 9.38317 70.6584 9.61686 71.5429 9.88951C70.6584 9.61686 69.7739 9.34422 68.871 9.11053ZM62.2557 8.25365C62.1635 8.72103 62.0346 9.07158 61.924 9.30527C62.053 9.07158 62.1635 8.72103 62.2557 8.25365ZM50.2597 9.07159C50.0017 9.42213 49.7253 9.61687 49.4489 9.77267C49.7069 9.61687 49.9833 9.42213 50.2597 9.07159ZM47.1639 15.576C47.6062 15.3034 48.03 15.2645 48.4538 15.3424C48.03 15.2645 47.5877 15.3034 47.1639 15.576ZM47.2192 15.2255C47.2929 14.6413 47.2192 13.9791 47.0718 13.7844C47.2008 13.9791 47.2745 14.6413 47.2192 15.2255ZM47.1639 7.47467C47.2745 8.25365 47.3851 9.03263 47.514 9.77267C47.4035 8.99369 47.2929 8.2147 47.1639 7.47467ZM44.8237 6.77359C44.9158 6.50095 45.008 6.18935 45.1185 5.91671C45.0264 6.18935 44.9343 6.50095 44.8237 6.77359ZM39.83 10.0063C39.701 10.24 39.572 10.4348 39.4246 10.6685C39.5536 10.4348 39.6825 10.24 39.83 10.0063ZM38.6138 6.57885C38.8349 6.61779 39.0192 6.6957 39.1666 6.85149C39.0007 6.6957 38.8349 6.57885 38.6138 6.57885ZM22.3243 6.73465C22.2321 6.6957 22.1216 6.6957 22.0294 6.73465C21.9557 7.31888 21.8636 7.82522 21.7346 8.21471C21.882 7.82522 21.9742 7.31888 22.0294 6.73465C22.14 6.6957 22.2321 6.6957 22.3243 6.73465C22.3611 7.59153 22.5085 8.25365 22.7849 8.72104C22.5085 8.2147 22.3611 7.55258 22.3243 6.73465ZM19.6155 7.43573C19.6155 7.70837 19.5971 8.01997 19.5971 8.29261C19.5971 8.01997 19.5971 7.70837 19.6155 7.43573ZM18.1045 13.9791C18.3072 13.9791 18.5283 13.9012 18.7494 13.8233C18.5283 13.9012 18.3072 13.9402 18.1045 13.9791ZM18.1229 6.69569C18.1229 6.69569 18.1045 6.65674 18.1045 6.57885C18.1229 6.61779 18.1229 6.69569 18.1229 6.69569ZM178.493 8.44839C178.567 7.74731 177.996 8.17576 177.72 8.01996C177.572 7.55257 177.425 7.08518 177.296 6.57885C177.462 2.13866 177.462 2.13866 176.153 3.46293C176.024 3.42398 175.895 3.34608 175.766 3.30713C175.269 2.83975 174.882 3.15134 174.605 4.08611C173.629 4.12506 173.131 0.619649 171.915 2.4113C171.325 3.19028 170.902 2.45026 170.404 1.78813C169.612 0.697556 169.464 1.78812 169.483 3.22923C169.391 3.22923 169.28 3.22924 169.188 3.30713C168.395 1.63233 167.603 1.08704 166.848 3.42398C166.921 0.385957 166.203 0.502811 165.226 1.59338C165.115 1.59338 165.023 1.67127 164.931 1.82707C164.139 1.63232 163.383 -0.899361 162.554 1.63232C162.425 1.59337 162.315 1.63233 162.222 1.78813C161.891 1.16494 161.522 0.775449 161.062 0.931245C160.177 -0.587764 159.403 -0.120374 158.721 1.55443C158.224 1.35969 157.597 1.51548 157.247 0.970197C156.197 -0.704609 156.068 1.16494 155.755 2.45025C155.054 -0.82146 154.391 1.43758 153.709 2.4892C153.396 0.697551 153.304 0.619651 152.64 1.86602C152.567 2.06076 152.53 2.25551 152.511 2.4892C152.069 3.15134 151.682 3.54083 151.719 1.78813C151.185 0.0743726 150.282 0.0354213 149.452 1.74918L149.416 1.67127C148.771 1.86602 148.015 0.93124 147.554 2.60605C146.228 3.07343 145.048 -0.0424741 143.666 1.78813C143.187 0.970199 142.708 0.152264 142.063 1.08704C141.584 0.191213 141.087 -0.548818 140.534 0.892294C140.386 0.931243 140.257 0.970199 140.11 1.00915C139.87 0.93125 139.631 0.892301 139.41 0.814403C138.286 -0.19827 137.18 -0.626713 136.277 1.71022C135.872 1.86602 135.503 -0.120372 135.079 1.59338C133.9 -0.159321 133.052 2.21656 132.039 2.68395C131.634 2.41131 131.412 1.24283 130.878 1.63232C130.104 -0.237229 129.865 0.814401 129.717 2.52815C129.183 2.52815 129.201 0.658602 128.556 0.931245C127.856 -0.665662 127.561 0.853347 127.174 1.71022C127.008 1.32073 126.695 0.775454 126.585 1.20389C126.456 1.78813 126.585 2.60606 126.603 3.34609C126.105 2.99554 125.663 2.06077 125.073 2.76185C124.097 1.24284 123.839 3.03449 123.47 4.31981C123.083 4.28086 122.715 4.20295 122.328 4.164C122.236 3.07343 122.77 1.51548 121.922 0.931245C121.185 0.424909 121.775 2.68395 121.204 2.645C120.798 2.52815 120.467 1.20388 120.006 2.4113C119.14 1.35968 119.011 2.87869 118.771 4.00821C117.15 2.80079 115.51 1.67128 113.796 3.30713C113.17 3.19029 112.506 0.347008 111.917 3.42398C111.88 3.61872 111.861 3.85242 111.861 4.04716C111.216 3.85242 110.553 2.17761 109.945 4.164C109.208 3.26818 108.655 4.7093 108.01 4.90404C107.936 3.85242 107.531 4.20296 107.236 4.08611C106.61 0.775452 105.651 4.12506 104.877 3.54083C104.638 3.50188 104.38 3.46293 104.14 3.42398C103.44 4.04716 102.814 1.82707 102.095 3.19028C101.984 3.11238 101.892 3.19028 101.8 3.38503C101.026 3.54082 100.234 1.00914 99.4783 3.46293C98.686 2.645 98.3727 4.16402 97.9305 4.98195C97.0644 2.99555 95.9035 2.60605 93.2684 3.30713C91.9417 1.04809 90.965 4.20296 89.7857 4.28086C89.1776 3.54083 88.5511 3.15134 87.9061 4.08611C87.8324 3.11239 87.8877 1.98287 87.1875 1.90497C86.5794 1.86602 86.6899 2.64499 86.7637 3.38503C86.6162 4.28085 86.2661 4.12506 85.9529 4.08611C85.3632 2.7229 84.9762 2.9566 84.7551 4.7093C84.4603 4.7872 84.3681 3.69662 84.018 4.20296C83.4099 3.42398 82.7834 2.87869 82.0463 3.38503C81.2171 2.95659 80.48 3.85242 79.7245 4.28086C78.4899 2.68395 74.7308 3.1124 73.533 4.98195C73.4225 3.34609 72.9618 2.7229 72.3906 3.89137C71.8009 5.02089 71.1191 4.7872 70.4741 5.17669C69.8476 4.08612 69.4238 5.41037 68.9263 5.72196L68.9078 5.79987C68.0602 4.51455 67.1204 4.7872 66.1806 5.09879C65.333 4.16401 65.1856 7.7473 64.2642 6.42304C63.7483 4.2419 63.0296 5.17668 62.311 5.79987C61.0395 4.16401 59.6943 5.05983 58.3676 5.33247C58.3676 5.21563 58.386 5.05983 58.386 4.94298C58.3676 4.86509 58.2939 4.7093 58.2939 4.7093C57.7411 5.44933 57.1882 6.11145 56.5064 5.72196C55.4377 4.43665 54.6269 4.90404 54.0741 7.27992C54.7559 7.86416 55.4377 8.48735 56.101 9.07159C55.4192 8.48735 54.7374 7.86416 54.0741 7.27992H53.8898C53.7608 3.30713 52.7289 4.98193 51.8444 5.8388C51.4574 5.76091 51.0889 5.72196 50.7019 5.64406C50.0017 4.04715 49.412 5.76091 48.7671 5.91671C48.6381 5.83881 48.5275 5.76093 48.3985 5.76093C47.3113 3.93032 46.261 5.56618 45.1922 5.87777C44.5841 4.16401 43.9761 4.94299 43.368 5.87777C42.0596 4.94299 40.7697 4.0861 39.4246 5.64406C39.185 5.68301 38.9455 5.68301 38.6875 5.72196C38.5585 5.76091 38.4295 5.76092 38.3005 5.79987C37.8583 5.60512 37.4713 5.83881 37.1396 6.50094C36.7526 6.2283 36.4762 5.29353 35.9787 5.79987C35.7023 5.79987 35.4075 5.8388 35.1311 5.8388C34.6335 5.76091 34.136 5.79986 33.7122 6.42304C33.6385 6.65673 33.5463 6.7736 33.3989 6.73465C33.5279 6.7736 33.6385 6.69568 33.7122 6.42304C32.5697 4.0082 31.5378 5.60512 30.5059 6.77359C29.8978 4.08611 29.1423 8.09785 28.5158 6.57885C27.8708 3.30713 26.802 5.52721 25.8991 5.64406C25.7701 5.68301 25.6411 5.76092 25.5121 5.79987C24.5171 7.39677 23.7432 4.98194 22.8402 5.09879C22.2137 5.21564 21.5688 5.37143 20.9422 5.48828C20.1499 3.81347 19.7076 5.02088 19.3022 6.42304C19.1917 6.50094 19.0811 6.50095 18.9705 6.462C19.1548 3.85242 18.3625 4.7093 17.7544 4.90404C17.2384 4.43666 17.0357 5.79987 16.6119 5.79987C16.0591 6.18935 16.2433 2.91765 15.4141 4.7093C15.4141 5.02089 15.4326 5.37143 15.4326 5.68302C15.6905 6.50095 15.9485 7.31888 16.2249 8.1368C15.9669 7.31888 15.709 6.50095 15.4326 5.68302C15.4326 5.37143 15.4141 5.02089 15.4141 4.7093C14.2716 4.7093 13.1476 5.60512 12.0051 4.74824C11.9314 4.35875 11.913 3.73557 11.5813 4.08611C11.0838 4.04716 10.5678 3.96927 10.0703 3.93032C9.18578 2.56711 8.20915 3.54083 7.2878 3.34609C7.15881 3.22924 7.04825 3.26818 6.91926 3.42398C6.27431 3.57977 5.66622 1.43758 5.00284 3.30713C4.19205 3.22924 3.36284 2.87869 2.68103 4.20296C1.94395 4.3198 2.36778 5.99461 1.98081 6.57885C1.83339 7.27993 2.01766 8.40946 1.55698 8.6821C-0.506845 9.92846 1.00417 12.0706 1.48328 13.0054C2.42306 14.7971 3.25227 16.9003 4.98442 16.1603C5.88734 15.7708 7.02982 14.9918 8.08016 15.615C9.40691 14.6413 10.7152 15.0308 12.0051 15.8877C14.1795 17.3677 16.3539 17.4456 18.5283 15.7708C18.8231 16.7445 19.3207 16.2382 19.7076 16.5498C20.5 18.1467 20.5921 16.355 20.8685 15.4982C20.758 15.3813 20.6474 15.3034 20.5184 15.2255C20.1683 13.7065 19.6339 13.5507 19.0627 13.6676C19.6339 13.5507 20.1683 13.6676 20.5184 15.2255C20.6474 15.2645 20.758 15.3813 20.8685 15.4982V15.4203C21.6609 17.2898 22.527 18.2635 23.5957 16.355C24.8856 18.4583 26.1755 16.2382 27.4654 16.394C29.6214 18.1467 31.8511 16.9782 34.0623 17.173C34.5783 17.7572 35.0942 18.5751 35.6102 17.2119C35.9419 16.5498 36.3104 16.2382 36.7711 16.3161C36.8632 17.173 37.2133 17.134 37.5082 17.2509C38.19 18.2246 38.7796 18.5362 39.0745 16.394C39.4614 16.355 39.8484 16.3161 40.2354 16.2382C40.4933 16.5498 40.7329 16.9003 40.9909 17.2119C41.7464 19.0815 42.0781 16.7445 42.6124 16.4719L42.5756 16.4329C42.9626 16.5887 43.239 17.5625 43.7181 17.0561C44.2156 17.5235 44.0498 14.2128 44.879 16.2382C45.5792 17.9519 46.4268 17.0951 47.2192 16.394C48.0116 17.4456 48.6565 16.9393 49.2646 15.6539C49.6147 15.8097 49.9648 15.9655 50.3334 16.1603C50.2781 15.9266 50.2597 15.6539 50.2965 15.3813C50.8493 14.057 51.4021 13.6675 51.9365 14.2128C51.4021 13.6675 50.8493 14.096 50.2965 15.3813C50.2597 15.6539 50.2781 15.8876 50.3334 16.1603C51.0152 17.913 51.7707 18.1467 52.821 17.4846C53.337 17.134 53.853 16.5108 54.5348 16.5887C55.7141 16.7056 56.875 17.7572 58.0727 17.0951C58.9941 17.3288 59.5469 14.4465 60.4683 15.576C62.6795 18.2635 64.817 17.4066 66.973 15.576C66.9914 16.0434 67.0099 16.5108 67.0283 16.9782C67.8022 15.4982 69.0184 17.6793 69.7186 15.615C70.1793 15.3813 70.64 15.1476 71.1007 14.875C72.2063 16.9393 73.3303 17.4456 74.4544 14.9139C74.8045 14.5634 75.1362 14.2518 75.4863 13.9012C76.1128 17.0561 76.8131 15.9655 77.5133 14.0181C77.587 14.057 77.6423 14.057 77.716 14.096C77.8634 13.9791 78.0108 13.9012 78.1398 13.7844C77.9924 13.9012 77.845 13.9791 77.716 14.096C78.5268 15.7708 79.5218 15.615 80.5169 15.4592C81.1618 15.1866 81.8068 14.9139 82.4333 14.6023C83.023 14.875 83.6126 15.2255 84.0917 14.0571C85.658 13.0444 87.1506 13.4339 88.6248 14.7971C89.6751 16.5498 89.6383 13.5897 90.1911 13.2002C90.9835 13.0833 91.61 15.2645 92.4945 13.9402C93.9134 14.1739 95.3507 14.4465 96.7695 14.6802C97.1565 15.8876 97.5435 15.6929 97.9305 14.6802C98.7781 13.5118 99.7916 14.9918 100.639 13.9402C101.284 14.2907 101.911 15.7318 102.574 14.0181C102.832 13.9402 103.09 13.8623 103.348 13.7844C104.085 14.5244 104.877 16.355 105.357 13.2002C105.578 13.4339 105.78 13.6676 106.002 13.8623C106.425 14.1349 106.868 14.4076 107.291 14.6802C107.973 14.9918 108.544 12.6549 109.484 14.7581C109.779 15.4592 111.88 16.355 112.654 13.1223C112.912 13.1612 113.151 13.1612 113.409 13.2002C114.183 13.6676 114.957 14.1739 115.749 14.6413C117.15 14.0571 118.735 15.7319 119.988 13.2002C120.227 13.8234 120.633 13.5507 120.835 13.7065C121.775 14.4076 122.457 11.0969 122.825 12.4601C123.562 15.1866 124.244 13.4339 124.981 13.1223C125.921 14.1349 126.824 12.4601 127.745 13.0444C129.422 14.2518 131.062 10.7074 132.758 12.7717C133.55 13.2391 134.342 13.0444 135.135 12.8496C136.554 14.0181 137.862 10.2011 139.318 12.3822C139.336 12.2654 139.336 12.1096 139.354 11.9928C140.792 13.356 142.192 13.2781 143.556 11.5254C144.016 12.9275 144.496 14.096 145.159 11.9538C145.288 11.9538 145.435 11.9538 145.583 11.9538C145.712 12.0317 145.841 12.1096 145.97 12.1875C146.578 13.5118 147.26 12.0317 147.886 12.4601C148.605 13.9012 148.789 12.1485 149.158 11.4864C149.268 11.5643 149.36 11.5254 149.452 11.4085L149.416 11.4864C149.932 13.2002 150.798 11.2138 151.369 12.2654C152.475 13.0054 153.58 14.1349 154.501 11.5254C156.252 13.1612 158.076 11.4085 159.845 12.0317C160.38 12.3433 160.933 12.6549 161.467 12.9275C162.186 12.538 162.812 11.1748 163.66 12.7328C163.973 13.317 164.452 12.4212 164.6 11.4475C165.097 11.1748 165.613 12.0317 166.092 11.2527C166.848 13.4339 167.806 13.0054 168.801 12.2264C169.501 13.2781 170.22 14.096 171.086 13.0444C171.731 14.9529 172.413 13.8623 173.094 13.1612C173.205 13.0444 173.316 13.0054 173.426 13.0444C173.924 15.2255 174.79 12.9665 175.416 13.7844C175.969 16.5498 176.835 13.9402 177.535 14.3297C177.462 13.9013 177.369 13.4339 177.296 13.0054C177.296 12.1096 177.48 11.7201 177.941 11.4864C178.678 11.2527 178.383 9.53896 178.493 8.44839Z" fill="#F4B33E"/>
</svg>
