<svg width="100%" height="100%" viewBox="0 0 538 12" fill="none" xmlns="http://www.w3.org/2000/svg">
<path d="M529.904 4.95715C529.459 4.80136 529.013 4.61959 528.624 4.46379C529.069 4.64555 529.459 4.80136 529.904 4.95715ZM517.93 4.3859C518.766 4.10027 519.657 3.65885 520.603 3.52902C519.712 3.65885 518.766 4.10027 517.93 4.3859ZM512.138 4.3859C512.138 4.02237 512.193 3.63289 512.193 3.26936C512.138 3.63289 512.138 3.99641 512.138 4.3859ZM466.523 2.82794C467.804 2.67214 469.141 3.00969 470.422 3.24339C469.141 3.00969 467.804 2.64618 466.523 2.82794ZM450.427 3.34726C450.984 3.1655 451.597 2.98373 452.21 2.80197C451.653 2.98373 451.04 3.1655 450.427 3.34726ZM444.301 3.84062C442.352 2.87988 440.347 4.28204 438.397 3.84062C435.612 3.84062 432.828 3.84061 430.043 3.86658C432.828 3.86658 435.612 3.86658 438.397 3.84062C440.347 4.25607 442.296 2.87988 444.301 3.84062ZM428.985 3.84062C428.595 3.65886 428.205 3.50305 427.815 3.42515C428.205 3.52902 428.595 3.65886 428.985 3.84062ZM400.914 3.29532C400.636 3.24339 400.357 3.16549 400.135 3.11356C400.413 3.16549 400.636 3.24339 400.914 3.29532ZM395.066 7.08636C391.39 6.46318 387.77 6.4372 384.094 6.74879C387.77 6.41124 391.39 6.43721 395.066 7.08636C396.57 7.26813 398.018 7.47584 399.522 7.6576C398.074 7.44987 396.57 7.26813 395.066 7.08636ZM388.104 2.98374C388.494 2.9318 388.94 2.87987 389.33 2.82794C388.94 2.87987 388.55 2.9318 388.104 2.98374C387.659 3.84061 386.879 4.25607 385.71 4.25607C386.879 4.25607 387.715 3.84061 388.104 2.98374ZM362.262 4.3859C362.318 4.17817 362.318 3.99641 362.373 3.78868C362.318 3.97044 362.318 4.17817 362.262 4.3859ZM348.282 4.46379C346.222 5.16487 343.938 4.93118 341.71 4.80135C343.994 4.93118 346.222 5.16487 348.282 4.46379C350.789 4.61959 353.351 4.80136 355.857 4.82732C353.351 4.80136 350.844 4.61959 348.282 4.46379ZM337.645 4.90522C336.085 5.06101 334.693 4.98312 333.746 4.48977C334.693 4.98312 336.085 5.03505 337.645 4.90522C337.645 4.56766 337.645 4.20413 337.7 3.86658C337.645 4.20413 337.645 4.54169 337.645 4.90522ZM324.835 4.51573C322.551 4.90522 320.323 5.65823 317.928 5.47647C320.323 5.6842 322.551 4.93118 324.835 4.51573C325.837 4.46379 326.84 4.43783 327.898 4.3859C326.84 4.43783 325.837 4.48976 324.835 4.51573ZM314.03 4.46379C314.475 4.61959 314.977 4.77538 315.422 4.93118C314.977 4.77538 314.531 4.61959 314.03 4.46379ZM306.734 7.52777C307.012 7.60567 307.235 7.70954 307.346 7.8913C307.179 7.70954 307.012 7.60567 306.734 7.52777ZM300.273 3.34726C299.493 3.73675 298.769 3.94448 297.99 3.97045C298.714 3.94448 299.493 3.76271 300.273 3.34726C301.665 3.34726 303.058 3.45112 304.227 3.21743C303.058 3.45112 301.61 3.34726 300.273 3.34726ZM270.476 3.73675C270.643 3.81464 270.81 3.86657 271.089 3.94447C270.81 3.86657 270.643 3.78868 270.476 3.73675ZM256.664 3.42515C256.998 3.24339 257.332 3.03567 257.722 2.87987C257.332 3.03567 257.054 3.24339 256.664 3.42515ZM250.983 4.90522C250.314 4.61959 249.702 4.30799 248.978 4.0743C249.646 4.30799 250.259 4.61959 250.983 4.90522C251.373 4.59362 251.707 4.28204 251.93 3.97045C251.707 4.308 251.317 4.59362 250.983 4.90522ZM242.907 9.29347C243.018 9.26751 243.185 9.21557 243.297 9.1896C243.185 9.24153 243.018 9.26751 242.907 9.29347ZM240.512 8.2029C240.902 8.07307 241.403 7.86534 241.737 7.73551C241.348 7.86534 240.846 8.07307 240.512 8.2029ZM229.986 5.52841C232.325 5.45051 234.664 5.37261 236.892 5.08698C234.608 5.34664 232.325 5.45051 229.986 5.52841ZM224.138 5.55437C224.528 5.5284 224.917 5.5284 225.307 5.50243C224.917 5.50243 224.528 5.5284 224.138 5.55437ZM206.649 6.07368C209.323 6.25545 212.052 6.41124 214.725 6.593C212.052 6.41124 209.378 6.22948 206.649 6.07368ZM186.655 5.50243C186.376 5.81402 185.986 6.04772 185.652 6.20351C186.042 6.04772 186.376 5.81402 186.655 5.50243ZM150.397 6.04773C149.617 6.28142 148.782 6.41125 147.947 6.51511C148.726 6.41125 149.562 6.28142 150.397 6.04773ZM141.04 10.384C142.377 10.2023 143.658 10.1763 144.939 10.2282C143.658 10.1763 142.321 10.2023 141.04 10.384ZM141.207 10.1503C141.43 9.76086 141.207 9.31943 140.762 9.1896C141.152 9.31943 141.375 9.76086 141.207 10.1503ZM141.04 4.98311C141.375 5.50243 141.709 6.02176 142.099 6.51511C141.764 5.99579 141.43 5.47646 141.04 4.98311ZM133.967 4.51573C134.246 4.33396 134.524 4.12623 134.858 3.94447C134.58 4.12623 134.301 4.33396 133.967 4.51573ZM118.874 6.6709C118.484 6.82669 118.094 6.95653 117.648 7.11232C118.038 6.95653 118.428 6.82669 118.874 6.6709ZM115.198 4.3859C115.866 4.41186 116.423 4.4638 116.869 4.56766C116.367 4.4638 115.866 4.3859 115.198 4.3859ZM65.9632 4.48977C65.6848 4.4638 65.3506 4.4638 65.0721 4.48977C64.8493 4.87926 64.5709 5.21681 64.181 5.47647C64.6265 5.21681 64.905 4.87926 65.0721 4.48977C65.4063 4.4638 65.6848 4.4638 65.9632 4.48977C66.0746 5.06102 66.5202 5.50243 67.3556 5.81402C66.5202 5.47647 66.0746 5.03505 65.9632 4.48977ZM57.776 4.95715C57.776 5.13891 57.7203 5.34664 57.7203 5.52841C57.7203 5.34664 57.7203 5.13891 57.776 4.95715ZM53.209 9.31943C53.8217 9.31943 54.49 9.26749 55.1584 9.21556C54.49 9.26749 53.8217 9.29346 53.209 9.31943ZM53.2647 4.46379C53.2647 4.46379 53.209 4.43783 53.209 4.3859C53.2647 4.41186 53.2647 4.46379 53.2647 4.46379ZM537.98 5.63226C538.203 5.16487 536.477 5.4505 535.641 5.34664C535.196 5.03505 534.75 4.72345 534.36 4.3859C534.861 1.42578 534.861 1.42578 530.907 2.30862C530.517 2.28265 530.127 2.23072 529.737 2.20476C528.234 1.89316 527.064 2.10089 526.229 2.72408C523.277 2.75004 521.773 0.413099 518.097 1.60753C516.315 2.12685 515.034 1.63351 513.53 1.19208C511.135 0.465037 510.69 1.19208 510.745 2.15282C510.467 2.15282 510.133 2.15282 509.854 2.20476C507.459 1.08822 505.064 0.724692 502.781 2.28265C503.004 0.257305 500.832 0.335207 497.88 1.06225C497.546 1.06225 497.267 1.11418 496.989 1.21804C494.594 1.08821 492.31 -0.599574 489.804 1.08821C489.414 1.06225 489.08 1.08822 488.801 1.19208C487.799 0.776629 486.685 0.516966 485.293 0.62083C482.619 -0.391843 480.28 -0.0802496 478.219 1.03629C476.716 0.906457 474.822 1.01032 473.764 0.646798C470.589 -0.469739 470.199 0.776624 469.252 1.6335C467.136 -0.54764 465.131 0.958388 463.07 1.65947C462.123 0.465034 461.845 0.413101 459.84 1.24401C459.617 1.37384 459.506 1.50367 459.45 1.65947C458.113 2.10089 456.944 2.36055 457.055 1.19208C455.44 0.0495818 452.711 0.0236143 450.205 1.16612L450.093 1.11418C448.144 1.24401 445.86 0.620827 444.468 1.73736C440.458 2.04896 436.893 -0.0283161 432.716 1.19208C431.268 0.646799 429.82 0.101509 427.871 0.724692C426.423 0.127475 424.919 -0.365878 423.248 0.594863C422.803 0.620829 422.413 0.646799 421.967 0.672765C421.243 0.620833 420.519 0.594867 419.851 0.542935C416.453 -0.13218 413.112 -0.417809 410.383 1.14015C409.157 1.24401 408.043 -0.0802481 406.762 1.06225C403.198 -0.106214 400.636 1.47771 397.573 1.7893C396.347 1.60754 395.679 0.828555 394.064 1.08821C391.725 -0.158152 391.001 0.542934 390.555 1.68544C388.94 1.68544 388.996 0.439068 387.046 0.62083C384.93 -0.443775 384.039 0.568898 382.869 1.14015C382.368 0.88049 381.421 0.516969 381.087 0.802595C380.697 1.19208 381.087 1.73737 381.143 2.23072C379.639 1.99703 378.302 1.37385 376.52 1.84123C373.568 0.828561 372.788 2.023 371.674 2.87987C370.505 2.85391 369.391 2.80197 368.221 2.776C367.943 2.04896 369.558 1.01032 366.996 0.62083C364.768 0.283273 366.55 1.7893 364.824 1.76333C363.599 1.68543 362.596 0.802589 361.204 1.60753C358.586 0.906453 358.196 1.91913 357.472 2.67214C352.571 1.8672 347.614 1.11419 342.434 2.20476C340.541 2.12686 338.536 0.231339 336.753 2.28265C336.642 2.41248 336.586 2.56828 336.586 2.69811C334.637 2.56828 332.632 1.45174 330.794 2.776C328.566 2.17879 326.895 3.13953 324.946 3.26936C324.723 2.56828 323.498 2.80197 322.607 2.72408C320.713 0.516968 317.817 2.75004 315.478 2.36055C314.754 2.33459 313.974 2.30862 313.25 2.28265C311.134 2.69811 309.24 1.21804 307.068 2.12685C306.734 2.07492 306.455 2.12685 306.177 2.25668C303.838 2.36055 301.443 0.672762 299.159 2.30862C296.764 1.76333 295.817 2.77601 294.481 3.3213C291.863 1.99703 288.354 1.73737 280.39 2.20476C276.38 0.69873 273.428 2.80197 269.863 2.85391C268.026 2.36055 266.132 2.10089 264.183 2.72408C263.96 2.07493 264.127 1.32191 262.01 1.26998C260.173 1.24401 260.507 1.76333 260.729 2.25668C260.284 2.8539 259.226 2.75004 258.279 2.72408C256.497 1.81527 255.327 1.97106 254.659 3.13953C253.768 3.19146 253.489 2.46441 252.431 2.80197C250.593 2.28265 248.699 1.91913 246.471 2.25668C243.965 1.97106 241.737 2.56828 239.454 2.85391C235.722 1.7893 224.36 2.07493 220.74 3.3213C220.406 2.23073 219.014 1.81527 217.287 2.59425C215.505 3.34726 213.444 3.19147 211.495 3.45113C209.601 2.72408 208.32 3.60691 206.816 3.81464L206.761 3.86658C204.199 3.0097 201.358 3.19146 198.518 3.39919C195.956 2.77601 195.51 5.16487 192.726 4.28203C191.166 2.82793 188.994 3.45112 186.822 3.86658C182.979 2.77601 178.913 3.37322 174.903 3.55498C174.903 3.47708 174.959 3.37322 174.959 3.29532C174.903 3.24339 174.68 3.13953 174.68 3.13953C173.009 3.63289 171.339 4.0743 169.278 3.81464C166.048 2.95776 163.597 3.26936 161.926 4.85328C163.987 5.24277 166.048 5.65824 168.053 6.04773C165.992 5.65824 163.931 5.24277 161.926 4.85328H161.369C160.979 2.20475 157.86 3.32129 155.187 3.89254C154.017 3.8406 152.904 3.81464 151.734 3.76271C149.617 2.6981 147.835 3.84061 145.886 3.94447C145.496 3.89254 145.162 3.84062 144.772 3.84062C141.486 2.62022 138.311 3.71078 135.081 3.91851C133.243 2.77601 131.405 3.29533 129.567 3.91851C125.613 3.29533 121.714 2.72407 117.648 3.76271C116.924 3.78867 116.2 3.78868 115.421 3.81464C115.031 3.84061 114.641 3.84061 114.251 3.86658C112.914 3.73675 111.745 3.89254 110.742 4.33396C109.573 4.1522 108.737 3.52902 107.233 3.86658C106.398 3.86658 105.507 3.89254 104.671 3.89254C103.168 3.8406 101.664 3.86657 100.383 4.28203C100.16 4.43782 99.8816 4.51573 99.4361 4.48977C99.8259 4.51573 100.16 4.46379 100.383 4.28203C96.9298 2.67214 93.8108 3.73675 90.6919 4.51573C88.854 2.72407 86.5705 5.39857 84.6768 4.3859C82.7275 2.20475 79.4972 3.68481 76.7681 3.76271C76.3782 3.78867 75.9884 3.84061 75.5985 3.86658C72.591 4.93118 70.2518 3.32129 67.5227 3.39919C65.6291 3.47709 63.6797 3.58095 61.7861 3.65885C59.3912 2.54232 58.0545 3.34725 56.8292 4.28203C56.495 4.33396 56.1609 4.33397 55.8267 4.308C56.3837 2.56828 53.9888 3.13953 52.1508 3.26936C50.5914 2.95777 49.9787 3.86658 48.6977 3.86658C47.0269 4.12624 47.5838 1.9451 45.0775 3.13953C45.0775 3.34726 45.1332 3.58095 45.1332 3.78868C45.9129 4.33397 46.6927 4.87925 47.5281 5.42454C46.7484 4.87925 45.9686 4.33397 45.1332 3.78868C45.1332 3.58095 45.0775 3.34726 45.0775 3.13953C41.6244 3.13953 38.227 3.73674 34.7739 3.16549C34.5511 2.90583 34.4954 2.49038 33.4929 2.72408C31.9891 2.69811 30.4297 2.64618 28.9259 2.62021C26.2525 1.7114 23.3007 2.36055 20.5159 2.23072C20.1261 2.15283 19.7919 2.17879 19.402 2.28265C17.4527 2.38651 15.6147 0.958389 13.6097 2.20476C11.1591 2.15282 8.65284 1.91913 6.59212 2.80197C4.36431 2.87987 5.6453 3.99641 4.4757 4.3859C4.03014 4.85328 4.58709 5.6063 3.19471 5.78807C-3.04316 6.61898 1.52385 8.0471 2.97193 8.67028C5.81238 9.86472 8.31867 11.2669 13.554 10.7735C16.2831 10.5139 19.7362 9.99455 22.9108 10.41C26.9209 9.76086 30.8752 10.0205 34.7739 10.5918C41.3459 11.5785 47.918 11.6304 54.49 10.5139C55.3811 11.163 56.8849 10.8255 58.0545 11.0332C60.4494 12.0978 60.7279 10.9034 61.5633 10.3321C61.2291 10.2542 60.895 10.2023 60.5051 10.1503C59.4469 9.13767 57.8317 9.03381 56.1052 9.11171C57.8317 9.03381 59.4469 9.11171 60.5051 10.1503C60.895 10.1763 61.2291 10.2542 61.5633 10.3321V10.2802C63.9582 11.5265 66.5759 12.1757 69.8062 10.9033C73.7049 12.3055 77.6035 10.8255 81.5022 10.9293C88.0185 12.0978 94.7577 11.3188 101.441 11.4486C103.001 11.8381 104.56 12.3834 106.119 11.4746C107.122 11.0332 108.236 10.8255 109.628 10.8774C109.907 11.4486 110.965 11.4227 111.856 11.5006C113.917 12.1497 115.699 12.3575 116.59 10.9293C117.76 10.9034 118.929 10.8774 120.099 10.8255C120.879 11.0332 121.603 11.2669 122.382 11.4746C124.666 12.721 125.669 11.163 127.284 10.9813L127.172 10.9553C128.342 11.0591 129.177 11.7083 130.625 11.3708C132.129 11.6823 131.628 9.47522 134.134 10.8255C136.251 11.968 138.813 11.3967 141.207 10.9293C143.602 11.6304 145.552 11.2928 147.39 10.436C148.448 10.5398 149.506 10.6437 150.62 10.7735C150.453 10.6177 150.397 10.436 150.509 10.2542C152.179 9.37136 153.85 9.1117 155.465 9.47522C153.85 9.1117 152.179 9.39732 150.509 10.2542C150.397 10.436 150.453 10.5918 150.62 10.7735C152.681 11.942 154.964 12.0978 158.139 11.6564C159.698 11.4227 161.258 11.0072 163.319 11.0592C166.883 11.1371 170.392 11.8381 174.012 11.3967C176.797 11.5525 178.468 9.63102 181.252 10.384C187.936 12.1757 194.396 11.6044 200.913 10.384C200.968 10.6956 201.024 11.0072 201.08 11.3188C203.419 10.3321 207.095 11.7862 209.211 10.41C210.604 10.2542 211.996 10.0984 213.389 9.91665C216.73 11.2928 220.128 11.6304 223.525 9.94262C224.583 9.70893 225.586 9.50119 226.644 9.2675C228.538 11.3707 230.654 10.6437 232.77 9.34539C232.993 9.37136 233.16 9.37136 233.383 9.39733C233.829 9.31943 234.274 9.2675 234.664 9.1896C234.219 9.2675 233.773 9.31943 233.383 9.39733C235.834 10.5139 238.841 10.41 241.849 10.3061C243.798 10.1244 245.747 9.94261 247.641 9.73488C249.423 9.91664 251.206 10.1503 252.654 9.37137C257.388 8.69625 261.899 8.9559 266.355 9.86471C269.529 11.0332 269.418 9.05977 271.089 8.80011C273.484 8.72221 275.377 10.1763 278.051 9.29347C282.339 9.44927 286.683 9.63102 290.972 9.78682C292.142 10.5918 293.311 10.4619 294.481 9.78682C297.043 9.00784 300.106 9.99455 302.668 9.29347C304.617 9.52717 306.511 10.4879 308.516 9.34539C309.296 9.29346 310.075 9.24153 310.855 9.1896C313.083 9.68296 315.478 10.9034 316.926 8.80011C317.594 8.95591 318.207 9.11171 318.875 9.24154C320.156 9.4233 321.493 9.60505 322.774 9.78682C324.835 9.99454 326.561 8.43659 329.402 9.83875C330.293 10.3061 336.642 10.9034 338.981 8.74818C339.761 8.77414 340.485 8.77415 341.265 8.80011C343.604 9.1117 345.943 9.44926 348.338 9.76086C352.571 9.37137 357.361 10.4879 361.148 8.80011C361.872 9.21557 363.097 9.0338 363.71 9.13767C366.55 9.60505 368.611 7.39794 369.725 8.30675C371.953 10.1244 374.014 8.9559 376.241 8.74818C379.082 9.42329 381.811 8.30675 384.596 8.69624C389.664 9.50119 394.621 7.1383 399.745 8.51449C402.14 8.82608 404.535 8.69624 406.929 8.56641C411.218 9.34539 415.172 6.80074 419.572 8.25483C419.628 8.17694 419.628 8.07307 419.684 7.99517C424.028 8.90398 428.261 8.85205 432.382 7.68358C433.775 8.61835 435.223 9.39733 437.228 7.9692C437.618 7.9692 438.063 7.9692 438.509 7.9692C438.899 8.02113 439.288 8.07307 439.678 8.125C441.516 9.00785 443.577 8.02113 445.471 8.30675C447.643 9.26749 448.2 8.09902 449.314 7.6576C449.648 7.70953 449.926 7.68358 450.205 7.60568L450.093 7.6576C451.653 8.80011 454.27 7.47584 455.997 8.17692C459.339 8.67028 462.68 9.4233 465.465 7.68358C470.756 8.77415 476.27 7.60568 481.617 8.02113C483.232 8.22886 484.903 8.43659 486.518 8.61835C488.69 8.35869 490.584 7.44988 493.146 8.48852C494.092 8.87801 495.541 8.28079 495.986 7.63164C497.49 7.44988 499.049 8.02113 500.497 7.50181C502.781 8.95591 505.677 8.67028 508.685 8.15096C510.801 8.85204 512.973 9.39732 515.591 8.69624C517.54 9.96857 519.601 9.24154 521.662 8.77415C521.996 8.69625 522.33 8.67028 522.664 8.69624C524.168 10.1503 526.786 8.64432 528.679 9.1896C530.35 11.0332 532.968 9.29347 535.084 9.55313C534.861 9.26751 534.583 8.95591 534.36 8.67028C534.36 8.07306 534.917 7.8134 536.309 7.6576C538.537 7.50181 537.646 6.35931 537.98 5.63226Z" fill="#F4B33E"/>
</svg>
